<?xml version="1.0" standalone="no"?>
<!DOCTYPE svg PUBLIC "-//W3C//DTD SVG 20010904//EN"
 "http://www.w3.org/TR/2001/REC-SVG-20010904/DTD/svg10.dtd">
<svg version="1.0" xmlns="http://www.w3.org/2000/svg"
 width="16.000000pt" height="16.000000pt" viewBox="0 0 16.000000 16.000000"
 preserveAspectRatio="xMidYMid meet">
<metadata>
Created by potrace 1.11, written by Peter Selinger 2001-2013
</metadata>
<g transform="translate(0.000000,16.000000) scale(0.000800,-0.000800)"
fill="#000000" stroke="none">
<path d="M3337 18264 c-1 -1 -51 -4 -112 -8 -118 -7 -166 -12 -205 -22 -14 -3
-35 -8 -46 -10 -62 -12 -211 -60 -299 -98 -353 -149 -671 -451 -840 -798 -83
-170 -150 -416 -162 -597 -8 -130 -8 -13539 0 -13621 42 -403 212 -759 497
-1039 273 -268 644 -438 1020 -468 105 -9 13516 -8 13620 0 244 20 505 105
720 235 276 168 499 414 637 703 71 148 116 291 148 474 3 17 8 64 12 105 8
98 8 13545 0 13630 -4 36 -9 75 -11 86 -2 12 -7 39 -10 60 -4 22 -18 82 -32
133 -101 383 -347 727 -676 949 -62 41 -233 133 -303 163 -34 15 -199 68 -225
73 -14 2 -47 9 -75 15 -77 16 -103 20 -195 27 -65 5 -13456 13 -13463 8z
m13330 -8332 l0 -6662 -21 -5 c-12 -2 -3011 -3 -6666 -2 l-6645 2 -1 6660 c0
3663 3 6662 7 6665 4 3 3004 5 6667 5 l6658 0 1 -6663z"/>
<path d="M5000 9930 l0 -5000 5000 0 5000 0 0 5000 0 5000 -2177 -3 c-1198 -1
-2189 -5 -2203 -9 -14 -4 -43 -9 -65 -12 -22 -3 -86 -17 -143 -31 -554 -141
-1011 -582 -1175 -1135 -34 -114 -42 -153 -58 -285 -8 -61 -12 -415 -13 -1088
l-1 -998 -90 -60 c-286 -194 -502 -460 -627 -773 -22 -56 -66 -197 -73 -236
-3 -14 -7 -36 -10 -50 -6 -26 -11 -59 -24 -169 -10 -83 -6 -287 8 -381 83
-557 425 -1027 921 -1267 91 -44 218 -94 277 -108 99 -25 223 -48 293 -54 82
-8 324 -6 365 3 11 2 40 7 65 11 83 13 244 56 325 87 72 28 125 54 262 129
118 64 343 261 450 394 286 357 406 817 338 1297 -61 436 -339 860 -738 1128
l-72 48 -1 946 c0 667 3 946 10 947 63 4 2476 0 2482 -4 7 -4 11 -6541 5
-6647 -1 -13 -377 -15 -3325 -15 -1829 0 -3328 4 -3332 8 -4 4 -8 1504 -8
3332 -1 2949 1 3325 14 3326 8 0 382 1 832 1 746 0 817 2 820 17 3 13 2 1617
-1 1644 -1 4 -750 7 -1666 7 l-1665 0 0 -5000z"/>
</g>
</svg>
